<svg width="78" height="38" viewBox="0 0 78 38" fill="none" xmlns="http://www.w3.org/2000/svg">
<rect width="78" height="38" rx="19" fill="white"/>
<rect x="12" y="11" width="16" height="16" rx="8" fill="#49220B"/>
<rect x="50" y="11" width="16" height="16" rx="8" fill="#49220B"/>
<path d="M44.0996 19.3536C44.2948 19.1583 44.2948 18.8417 44.0996 18.6464L40.9176 15.4645C40.7223 15.2692 40.4057 15.2692 40.2105 15.4645C40.0152 15.6597 40.0152 15.9763 40.2105 16.1716L43.0389 19L40.2105 21.8284C40.0152 22.0237 40.0152 22.3403 40.2105 22.5355C40.4057 22.7308 40.7223 22.7308 40.9176 22.5355L44.0996 19.3536ZM34.8571 19.5H43.746V18.5H34.8571V19.5Z" fill="#49220B"/>
</svg>
