<svg width="78" height="38" viewBox="0 0 78 38" fill="none" xmlns="http://www.w3.org/2000/svg">
<rect x="0.5" y="0.5" width="77" height="37" rx="18.5" stroke="white" stroke-opacity="0.5"/>
<rect x="12" y="11" width="16" height="16" rx="8" fill="white" fill-opacity="0.5"/>
<rect x="50" y="11" width="16" height="16" rx="8" fill="white" fill-opacity="0.5"/>
<path d="M44.0996 19.3536C44.2949 19.1583 44.2949 18.8417 44.0996 18.6464L40.9176 15.4645C40.7224 15.2692 40.4058 15.2692 40.2105 15.4645C40.0153 15.6597 40.0153 15.9763 40.2105 16.1716L43.039 19L40.2105 21.8284C40.0153 22.0237 40.0153 22.3403 40.2105 22.5355C40.4058 22.7308 40.7224 22.7308 40.9176 22.5355L44.0996 19.3536ZM34.8572 19.5H43.7461V18.5H34.8572V19.5Z" fill="white" fill-opacity="0.5"/>
</svg>
