<svg width="50" height="38" viewBox="0 0 50 38" fill="none" xmlns="http://www.w3.org/2000/svg">
<path d="M49 6.4V31.6C49 33.0322 48.4165 34.4057 47.3778 35.4184C46.3392 36.4311 44.9304 37 43.4615 37H6.53846C5.06957 37 3.66084 36.4311 2.62218 35.4184C1.58351 34.4057 1 33.0322 1 31.6V6.4M49 6.4C49 4.96783 48.4165 3.59432 47.3778 2.58162C46.3392 1.56893 44.9304 1 43.4615 1H6.53846C5.06957 1 3.66084 1.56893 2.62218 2.58162C1.58351 3.59432 1 4.96783 1 6.4M49 6.4V6.9832C49.0001 7.90515 48.7581 8.81177 48.2971 9.61671C47.836 10.4216 47.1713 11.0981 46.3662 11.5816L27.9046 22.6576C27.0313 23.1821 26.0257 23.4598 25 23.4598C23.9743 23.4598 22.9687 23.1821 22.0954 22.6576L3.63385 11.584C2.82873 11.1005 2.16399 10.424 1.70294 9.61911C1.24189 8.81417 0.999895 7.90755 1 6.9856V6.4" stroke="#49220B" stroke-opacity="0.5" stroke-width="1.5" stroke-linecap="round" stroke-linejoin="round"/>
</svg>
