<svg width="42" height="38" viewBox="0 0 42 38" fill="none" xmlns="http://www.w3.org/2000/svg">
<path d="M29.9257 13.2148H41L33.9433 6.27126C31.6714 4.03718 28.8414 2.43059 25.7379 1.61301C22.6343 0.795429 19.3666 0.795668 16.2632 1.6137C13.1598 2.43174 10.3301 4.03874 8.05851 6.27315C5.78694 8.50757 4.1536 11.2906 3.32267 14.3426M1.00222 35.675V24.7852M1.00222 24.7852H12.0765M1.00222 24.7852L8.05674 31.7287C10.3286 33.9628 13.1586 35.5694 16.2621 36.387C19.3657 37.2046 22.6334 37.2043 25.7368 36.3863C28.8402 35.5683 31.6699 33.9613 33.9415 31.7269C36.2131 29.4924 37.8464 26.7094 38.6773 23.6574M41 2.32502V13.2104" stroke="#49220B" stroke-opacity="0.5" stroke-width="1.5" stroke-linecap="round" stroke-linejoin="round"/>
</svg>
